<svg width="33" height="33" viewBox="0 0 33 33" fill="none" xmlns="http://www.w3.org/2000/svg">
<path d="M25.4583 12.9167C27.3591 12.9167 29.1819 13.6717 30.5259 15.0157C31.8699 16.3597 32.625 18.1826 32.625 20.0833V29.0417C32.625 29.992 32.2475 30.9035 31.5755 31.5755C30.9035 32.2475 29.992 32.625 29.0417 32.625H3.95833C3.00797 32.625 2.09654 32.2475 1.42453 31.5755C0.752529 30.9035 0.375 29.992 0.375 29.0417V20.0833C0.375 18.1826 1.13006 16.3597 2.47407 15.0157C3.81808 13.6717 5.64095 12.9167 7.54167 12.9167V7.54167H11.125V12.9167H14.7083V7.54167H18.2917V12.9167H21.875V7.54167H25.4583V12.9167ZM7.54167 16.5C6.59131 16.5 5.67987 16.8775 5.00787 17.5495C4.33586 18.2215 3.95833 19.133 3.95833 20.0833V21.875H29.0417V20.0833C29.0417 19.133 28.6641 18.2215 27.9921 17.5495C27.3201 16.8775 26.4087 16.5 25.4583 16.5H7.54167ZM3.95833 25.4583V29.0417H29.0417V25.4583H3.95833ZM7.54167 2.16667C8.01685 2.16667 8.47256 1.9779 8.80857 1.6419C9.14457 1.3059 9.33333 0.85018 9.33333 0.375C9.80851 0.375 10.2642 0.563764 10.6002 0.899767C10.9362 1.23577 11.125 1.69149 11.125 2.16667V3.95833C11.125 4.43351 10.9362 4.88923 10.6002 5.22523C10.2642 5.56124 9.80851 5.75 9.33333 5.75C8.85815 5.75 8.40244 5.56124 8.06643 5.22523C7.73043 4.88923 7.54167 4.43351 7.54167 3.95833V2.16667ZM14.7083 2.16667C15.1835 2.16667 15.6392 1.9779 15.9752 1.6419C16.3112 1.3059 16.5 0.85018 16.5 0.375C16.9752 0.375 17.4309 0.563764 17.7669 0.899767C18.1029 1.23577 18.2917 1.69149 18.2917 2.16667V3.95833C18.2917 4.43351 18.1029 4.88923 17.7669 5.22523C17.4309 5.56124 16.9752 5.75 16.5 5.75C16.0248 5.75 15.5691 5.56124 15.2331 5.22523C14.8971 4.88923 14.7083 4.43351 14.7083 3.95833V2.16667ZM21.875 2.16667C22.3502 2.16667 22.8059 1.9779 23.1419 1.6419C23.4779 1.3059 23.6667 0.85018 23.6667 0.375C24.1418 0.375 24.5976 0.563764 24.9336 0.899767C25.2696 1.23577 25.4583 1.69149 25.4583 2.16667V3.95833C25.4583 4.43351 25.2696 4.88923 24.9336 5.22523C24.5976 5.56124 24.1418 5.75 23.6667 5.75C23.1915 5.75 22.7358 5.56124 22.3998 5.22523C22.0638 4.88923 21.875 4.43351 21.875 3.95833V2.16667Z" fill="black"/>
</svg>
