<svg width="191" height="151" viewBox="0 0 191 151" fill="none" xmlns="http://www.w3.org/2000/svg">
<g clip-path="url(#clip0_1_2270)">
<path d="M86.8226 61.3222C83.4871 54.2441 81.4084 46.2818 83.062 38.6698C84.7155 31.0578 90.583 24.0084 98.2468 22.6398C100.293 22.2472 102.54 22.3747 104.36 23.4642C107.518 25.431 108.538 29.6191 108.42 33.4499C108.302 37.2806 107.355 41.0336 108.521 44.5673C110.546 51.3552 118.427 54.684 122.577 60.2518C126.526 65.2995 127.227 72.7984 124.248 78.5321C121.269 84.2658 115.025 88.2732 108.658 88.3437C101.702 88.4425 95.1448 84.4027 91.2751 78.5273C87.4724 72.8252 85.9025 65.6623 86.0584 58.8284" fill="#60CE70"/>
<path d="M145.387 45.8555C144.4 50.0222 142.449 53.7645 141.395 57.758C138.313 68.9107 142.923 81.8711 153.093 87.5028C163.263 93.1344 177.56 89.7993 183.224 79.6407C184.106 78.3037 184.68 76.6872 184.666 75.099C184.65 70.9215 179.873 68.3852 175.699 67.4088C171.592 66.6057 166.923 66.418 163.845 63.6235C159.294 59.6051 160.319 52.4352 160.569 46.3618C160.899 39.4608 159.744 32.3368 156.57 26.1926C153.221 20.1155 147.506 15.1526 140.603 13.8365C137.566 13.2174 134.276 13.4932 131.695 15.0884C129.115 16.6836 127.378 19.9448 128.102 22.8524C131.173 34.4156 149.308 28.6011 145.387 45.8555Z" fill="white"/>
<path d="M29.9539 131.318C34.9193 135.376 42.4491 133.66 48.2929 131.202C54.1367 128.744 60.1671 125.218 66.5215 126.148C72.2204 126.934 77.3197 131.338 83.1653 131.469C89.5994 131.572 95.5611 125.283 95.0886 118.891C93.7255 100.89 62.4132 103.63 50.2277 104.157C39.3261 104.386 13.7866 118.442 29.9539 131.318Z" fill="#60CE70"/>
</g>
<defs>
<clipPath id="clip0_1_2270">
<rect width="167" height="97" fill="white" transform="translate(0.128906 60.3672) rotate(-21.1339)"/>
</clipPath>
</defs>
</svg>
