<svg width="228" height="219" viewBox="0 0 228 219" fill="none" xmlns="http://www.w3.org/2000/svg">
<path d="M223.012 2.00665C217.321 3.83709 211.713 5.60967 206.022 7.44012C204.347 8.01609 204.189 10.2127 205.383 11.2045C207.666 13.3856 209.973 15.4272 212.256 17.6082C199.386 32.9938 181.428 43.2834 162.389 49.8032C142.14 56.6911 117.517 57.2414 101.264 72.6978C97.8355 75.9885 94.2047 80.8944 91.4789 86.3843C79.7805 83.8947 66.627 85.7481 56.7774 90.5298C43.6445 96.9054 34.6886 109.513 32.7959 123.608C20.3971 129.463 10.1389 142.137 5.20806 153.851C-3.93801 175.177 -0.215189 200.124 14.5387 217.979C15.5461 219.226 17.585 217.78 16.5776 216.533C5.87985 202.666 1.05418 184.632 4.5729 167.299C7.7495 151.557 17.8895 135.779 32.514 128.223C32.4954 130.443 32.5584 132.605 32.9002 134.815C34.9719 148.795 50.1701 169.523 65.4843 157.063C79.5515 145.61 70.7194 126.25 55.5172 121.587C49.2458 119.661 43.0953 119.979 37.3234 121.867C39.521 110.621 46.8299 100.531 57.2978 95.0652C66.5898 90.1887 78.8252 88.251 89.7107 90.4591C85.0245 101.999 84.3551 115.226 95.0982 122.072C101.432 126.161 109.319 124.488 113.292 117.991C117.686 110.705 115.738 101.91 109.908 96.1141C105.934 92.0678 100.886 89.2736 95.4274 87.629C100.971 76.9516 111.342 69.1026 123.015 64.9892C132.325 61.6938 142.153 59.9926 151.739 57.6048C161.268 55.1355 170.636 51.9216 179.449 47.7528C193.245 41.2747 205.862 32.4446 215.652 20.839C216.823 21.9702 218.075 23.0437 219.245 24.175C220.055 25.3167 221.005 26.4822 221.734 27.6819C222.37 28.579 223.428 28.6869 224.22 28.2477C225.44 28.2399 226.572 27.0693 226.506 25.7671C226.693 17.9094 226.915 10.2725 227.218 2.57787C227.284 0.0787424 223.901 0.149473 223.012 2.00665ZM60.4254 128.159C66.7939 132.469 70.513 140.13 67.537 147.514C64.3269 155.432 55.748 159.067 48.3352 154.149C41.8852 149.897 38.2135 141.958 37.0514 134.444C36.6649 131.653 36.6152 128.991 36.7864 126.295C44.4445 123.436 53.2099 123.347 60.4254 128.159ZM104.466 96.9108C110.879 101.802 115.087 112.917 107.071 118.727C103.401 121.331 98.5919 120.084 95.4853 117.261C91.7527 113.901 90.7693 108.713 90.9354 103.936C91.112 99.5192 91.9621 95.3602 93.4856 91.459C97.5157 92.6458 101.23 94.4245 104.466 96.9108Z" fill="white"/>
</svg>
