<svg width="48" height="48" viewBox="0 0 48 48" fill="none" xmlns="http://www.w3.org/2000/svg">
<circle cx="24.0001" cy="23.9999" r="24" fill="#3F3F3F"/>
<path d="M15.0001 22.7499C14.3097 22.7499 13.7501 23.3095 13.7501 23.9999C13.7501 24.6902 14.3097 25.2499 15.0001 25.2499V22.7499ZM33.8839 24.8838C34.3721 24.3956 34.3721 23.6041 33.8839 23.116L25.929 15.161C25.4408 14.6729 24.6494 14.6729 24.1612 15.161C23.6731 15.6492 23.6731 16.4407 24.1612 16.9288L31.2323 23.9999L24.1612 31.0709C23.6731 31.5591 23.6731 32.3506 24.1612 32.8387C24.6494 33.3269 25.4408 33.3269 25.929 32.8387L33.8839 24.8838ZM15.0001 25.2499H33.0001V22.7499H15.0001V25.2499Z" fill="white"/>
</svg>
