<svg width="40" height="40" viewBox="0 0 40 40" fill="none" xmlns="http://www.w3.org/2000/svg">
<rect x="1" y="1" width="38" height="38" rx="10" fill="white" stroke="black" stroke-width="2"/>
<path d="M7.50037 29.9667C7.48196 30.7949 8.13845 31.4812 8.96667 31.4996L22.4633 31.7996C23.2916 31.818 23.9779 31.1615 23.9963 30.3333C24.0147 29.505 23.3582 28.8187 22.53 28.8003L10.533 28.5337L10.7996 16.5367C10.818 15.7084 10.1615 15.0221 9.33325 15.0037C8.50503 14.9853 7.8187 15.6418 7.80029 16.47L7.50037 29.9667ZM30.9632 6.91604L7.96316 28.916L10.0368 31.084L33.0368 9.08396L30.9632 6.91604Z" fill="black"/>
<path d="M34.2699 7.01774C34.2797 6.18937 33.6161 5.5099 32.7878 5.50011L19.2887 5.34052C18.4603 5.33073 17.7809 5.99432 17.7711 6.82269C17.7613 7.65106 18.4249 8.33052 19.2532 8.34031L31.2524 8.48217L31.1105 20.4813C31.1008 21.3097 31.7643 21.9892 32.5927 21.999C33.4211 22.0088 34.1005 21.3452 34.1103 20.5168L34.2699 7.01774ZM11.048 30.3111L33.8181 8.07313L31.722 5.92688L8.95195 28.1648L11.048 30.3111Z" fill="black"/>
</svg>
